<svg xmlns="http://www.w3.org/2000/svg" xmlns:xlink="http://www.w3.org/1999/xlink" width="840" height="385.65"><rect width="840" height="385.65" rx="5" ry="5" class="a"/><svg y="0%" x="0%"><circle cx="20" cy="20" r="6" fill="#ff5f58"/><circle cx="40" cy="20" r="6" fill="#ffbd2e"/><circle cx="60" cy="20" r="6" fill="#18c132"/></svg><svg height="325.65" viewBox="0 0 80 32.565" width="800" x="15" xmlns="http://www.w3.org/2000/svg" xmlns:xlink="http://www.w3.org/1999/xlink" y="50"><style>@keyframes n{0%{transform:translateX(0)}26.3%{transform:translateX(-80px)}29.4%{transform:translateX(-160px)}35.5%{transform:translateX(-240px)}40.3%{transform:translateX(-320px)}44.2%{transform:translateX(-400px)}47.9%{transform:translateX(-480px)}55.7%{transform:translateX(-640px)}56.3%{transform:translateX(-720px)}63.9%{transform:translateX(-800px)}to{transform:translateX(-960px)}}.a{fill:#282d35}.i{fill:#dbab79}.i,.j,.k{white-space:pre}.j{fill:#b9bfca;font-weight:700}.k{fill:#b9c0cb}</style><g font-family="Monaco,Consolas,Menlo,'Bitstream Vera Sans Mono','Powerline Symbols',monospace" font-size="1.67"><defs><symbol id="1"><text y="1.67" style="white-space:pre" fill="#71bef2" font-weight="700">github/dwmkerr/terminal-ai</text><text x="27.054" y="1.67" style="white-space:pre" fill="#a8cc8c" text-decoration="underline">main</text><text x="32.064" y="1.67" style="white-space:pre" fill="#e88388">!</text><text x="34.068" y="1.67" class="i">1</text><text x="36.072" y="1.67" class="i">in</text><text x="39.078" y="1.67" class="i">stash</text></symbol><symbol id="2"><text y="1.67" class="j">$</text></symbol><symbol id="3"><text y="1.67" class="j">$</text><text x="2.004" y="1.67" class="k">ghopen</text></symbol><symbol id="4"><text y="1.67" class="k">opening</text><text x="8.016" y="1.67" class="k">github.com/</text><text x="19.038" y="1.67" style="white-space:pre" fill="#a8cc8c">dwmkerr/terminal-ai</text></symbol><symbol id="a"><path fill="transparent" d="M0 0h80v15H0z"/></symbol></defs><path class="a" d="M0 0h80v32.565H0z"/><g style="animation-duration:4.02171s;animation-iteration-count:infinite;animation-name:n;animation-timing-function:steps(1,end)"><svg width="1040"><svg><use xlink:href="#a"/><use xlink:href="#1" y="2.171"/><use xlink:href="#2" y="4.342"/></svg><svg x="80"><use xlink:href="#a"/><use xlink:href="#1" y="2.171"/><text y="6.012" class="j">$</text><text x="2.004" y="6.012" class="k">g</text></svg><svg x="160"><use xlink:href="#a"/><use xlink:href="#1" y="2.171"/><text y="6.012" class="j">$</text><text x="2.004" y="6.012" class="k">gh</text></svg><svg x="240"><use xlink:href="#a"/><use xlink:href="#1" y="2.171"/><text y="6.012" class="j">$</text><text x="2.004" y="6.012" class="k">gho</text></svg><svg x="320"><use xlink:href="#a"/><use xlink:href="#1" y="2.171"/><text y="6.012" class="j">$</text><text x="2.004" y="6.012" class="k">ghop</text></svg><svg x="400"><use xlink:href="#a"/><use xlink:href="#1" y="2.171"/><text y="6.012" class="j">$</text><text x="2.004" y="6.012" class="k">ghope</text></svg><svg x="480"><use xlink:href="#a"/><use xlink:href="#1" y="2.171"/><use xlink:href="#3" y="4.342"/></svg><svg x="560"><use xlink:href="#a"/><use xlink:href="#1" y="2.171"/><use xlink:href="#3" y="4.342"/></svg><svg x="640"><use xlink:href="#a"/><use xlink:href="#1" y="2.171"/><use xlink:href="#3" y="4.342"/></svg><svg x="720"><use xlink:href="#a"/><use xlink:href="#1" y="2.171"/><use xlink:href="#3" y="4.342"/><use xlink:href="#4" y="6.513"/></svg><svg x="800"><use xlink:href="#a"/><use xlink:href="#1" y="2.171"/><use xlink:href="#3" y="4.342"/><use xlink:href="#4" y="6.513"/><use xlink:href="#1" y="10.855"/><use xlink:href="#2" y="13.026"/></svg><svg x="880"><use xlink:href="#a"/><use xlink:href="#1" y="2.171"/><use xlink:href="#3" y="4.342"/><use xlink:href="#4" y="6.513"/><use xlink:href="#1" y="10.855"/><use xlink:href="#2" y="13.026"/></svg><svg x="960"><use xlink:href="#a"/><use xlink:href="#1" y="2.171"/><use xlink:href="#3" y="4.342"/><use xlink:href="#4" y="6.513"/><use xlink:href="#1" y="10.855"/><use xlink:href="#2" y="13.026"/><text y="16.867" class="k">exit</text></svg></svg></g></g></svg></svg>