<svg xmlns="http://www.w3.org/2000/svg" xmlns:xlink="http://www.w3.org/1999/xlink" width="840" height="385.65"><rect width="840" height="385.65" rx="5" ry="5" class="a"/><svg y="0%" x="0%"><circle cx="20" cy="20" r="6" fill="#ff5f58"/><circle cx="40" cy="20" r="6" fill="#ffbd2e"/><circle cx="60" cy="20" r="6" fill="#18c132"/></svg><svg height="325.65" viewBox="0 0 80 32.565" width="800" x="15" xmlns="http://www.w3.org/2000/svg" xmlns:xlink="http://www.w3.org/1999/xlink" y="50"><style>@keyframes o{0%{transform:translateX(0)}30.5%{transform:translateX(-80px)}34.7%{transform:translateX(-160px)}40%{transform:translateX(-240px)}43.3%{transform:translateX(-320px)}50.4%{transform:translateX(-480px)}50.9%{transform:translateX(-560px)}51%{transform:translateX(-640px)}51.1%{transform:translateX(-720px)}51.2%{transform:translateX(-800px)}51.3%{transform:translateX(-960px)}51.4%{transform:translateX(-1040px)}52.5%{transform:translateX(-1120px)}to{transform:translateX(-1280px)}}.a{fill:#282d35}.k,.l,.m{white-space:pre}.k{fill:#b9bfca;font-weight:700}.l,.m{fill:#b9c0cb}.m{fill:#a8cc8c;font-weight:700}</style><g font-family="Monaco,Consolas,Menlo,'Bitstream Vera Sans Mono','Powerline Symbols',monospace" font-size="1.67"><defs><symbol id="1"><text y="1.67" style="white-space:pre" fill="#71bef2" font-weight="700">github/dwmkerr/effective-shell</text><text x="31.062" y="1.67" style="white-space:pre" fill="#a8cc8c" text-decoration="underline">main</text><text x="36.072" y="1.67" style="white-space:pre" fill="#e88388">!</text><text x="38.076" y="1.67" style="white-space:pre" fill="#d290e4">conda/</text><text x="44.088" y="1.67" style="white-space:pre" fill="#d290e4" font-weight="700">base</text></symbol><symbol id="2"><text y="1.67" class="k">$</text></symbol><symbol id="3"><text y="1.67" class="k">$</text><text x="2.004" y="1.67" class="l">make</text></symbol><symbol id="4"><text y="1.67" class="m">build</text><text x="5.01" y="1.67" class="l">:</text><text x="7.014" y="1.67" class="l">Build</text><text x="13.026" y="1.67" class="l">the</text><text x="17.034" y="1.67" class="l">site</text><text x="22.044" y="1.67" class="l">and</text><text x="26.052" y="1.67" class="l">artifacts.</text></symbol><symbol id="5"><text y="1.67" class="m">help</text><text x="4.008" y="1.67" class="l">:</text><text x="6.012" y="1.67" class="l">Show</text><text x="11.022" y="1.67" class="l">help</text><text x="16.032" y="1.67" class="l">for</text><text x="20.04" y="1.67" class="l">each</text><text x="25.05" y="1.67" class="l">of</text><text x="28.056" y="1.67" class="l">the</text><text x="32.064" y="1.67" class="l">Makefile</text><text x="41.082" y="1.67" class="l">recipes.</text></symbol><symbol id="6"><text y="1.67" class="m">serve</text><text x="5.01" y="1.67" class="l">:</text><text x="7.014" y="1.67" class="l">Serve</text><text x="13.026" y="1.67" class="l">the</text><text x="17.034" y="1.67" class="l">site</text><text x="22.044" y="1.67" class="l">locally</text><text x="30.06" y="1.67" class="l">for</text><text x="34.068" y="1.67" class="l">testing.</text></symbol><symbol id="7"><text y="1.67" class="m">setup</text><text x="5.01" y="1.67" class="l">:</text><text x="7.014" y="1.67" class="l">Setup</text><text x="13.026" y="1.67" class="l">tools</text><text x="19.038" y="1.67" class="l">required</text><text x="28.056" y="1.67" class="l">for</text><text x="32.064" y="1.67" class="l">local</text><text x="38.076" y="1.67" class="l">development.</text></symbol><symbol id="8"><text y="1.67" class="m">statistics</text><text x="10.02" y="1.67" class="l">:</text><text x="12.024" y="1.67" class="l">Create</text><text x="19.038" y="1.67" class="l">wordcount</text><text x="29.058" y="1.67" class="l">statistics.</text></symbol><symbol id="9"><text y="1.67" class="m">structure</text><text x="9.018" y="1.67" class="l">:</text><text x="11.022" y="1.67" class="l">Create</text><text x="18.036" y="1.67" class="l">the</text><text x="22.044" y="1.67" class="l">structure</text><text x="32.064" y="1.67" class="l">work</text><text x="37.074" y="1.67" class="l">doc.</text></symbol><symbol id="10"><text y="1.67" class="m">typescript-check</text><text x="16.032" y="1.67" class="l">:</text><text x="18.036" y="1.67" class="l">Check</text><text x="24.048" y="1.67" class="l">typescript</text><text x="35.07" y="1.67" class="l">types.</text></symbol><symbol id="a"><path fill="transparent" d="M0 0h80v15H0z"/></symbol></defs><path class="a" d="M0 0h80v32.565H0z"/><g style="animation-duration:7.262016s;animation-iteration-count:infinite;animation-name:o;animation-timing-function:steps(1,end)"><svg width="1360"><svg><use xlink:href="#a"/><use xlink:href="#1" y="2.171"/><use xlink:href="#2" y="4.342"/></svg><svg x="80"><use xlink:href="#a"/><use xlink:href="#1" y="2.171"/><text y="6.012" class="k">$</text><text x="2.004" y="6.012" class="l">m</text></svg><svg x="160"><use xlink:href="#a"/><use xlink:href="#1" y="2.171"/><text y="6.012" class="k">$</text><text x="2.004" y="6.012" class="l">ma</text></svg><svg x="240"><use xlink:href="#a"/><use xlink:href="#1" y="2.171"/><text y="6.012" class="k">$</text><text x="2.004" y="6.012" class="l">mak</text></svg><svg x="320"><use xlink:href="#a"/><use xlink:href="#1" y="2.171"/><use xlink:href="#3" y="4.342"/></svg><svg x="400"><use xlink:href="#a"/><use xlink:href="#1" y="2.171"/><use xlink:href="#3" y="4.342"/></svg><svg x="480"><use xlink:href="#a"/><use xlink:href="#1" y="2.171"/><use xlink:href="#3" y="4.342"/></svg><svg x="560"><use xlink:href="#a"/><use xlink:href="#1" y="2.171"/><use xlink:href="#3" y="4.342"/><use xlink:href="#4" y="6.513"/></svg><svg x="640"><use xlink:href="#a"/><use xlink:href="#1" y="2.171"/><use xlink:href="#3" y="4.342"/><use xlink:href="#4" y="6.513"/><use xlink:href="#5" y="8.684"/></svg><svg x="720"><use xlink:href="#a"/><use xlink:href="#1" y="2.171"/><use xlink:href="#3" y="4.342"/><use xlink:href="#4" y="6.513"/><use xlink:href="#5" y="8.684"/><use xlink:href="#6" y="10.855"/></svg><svg x="800"><use xlink:href="#a"/><use xlink:href="#1" y="2.171"/><use xlink:href="#3" y="4.342"/><use xlink:href="#4" y="6.513"/><use xlink:href="#5" y="8.684"/><use xlink:href="#6" y="10.855"/><use xlink:href="#7" y="13.026"/></svg><svg x="880"><use xlink:href="#a"/><use xlink:href="#1" y="2.171"/><use xlink:href="#3" y="4.342"/><use xlink:href="#4" y="6.513"/><use xlink:href="#5" y="8.684"/><use xlink:href="#6" y="10.855"/><use xlink:href="#7" y="13.026"/><use xlink:href="#8" y="15.197"/></svg><svg x="960"><use xlink:href="#a"/><use xlink:href="#1" y="2.171"/><use xlink:href="#3" y="4.342"/><use xlink:href="#4" y="6.513"/><use xlink:href="#5" y="8.684"/><use xlink:href="#6" y="10.855"/><use xlink:href="#7" y="13.026"/><use xlink:href="#8" y="15.197"/><use xlink:href="#9" y="17.368"/></svg><svg x="1040"><use xlink:href="#a"/><use xlink:href="#1" y="2.171"/><use xlink:href="#3" y="4.342"/><use xlink:href="#4" y="6.513"/><use xlink:href="#5" y="8.684"/><use xlink:href="#6" y="10.855"/><use xlink:href="#7" y="13.026"/><use xlink:href="#8" y="15.197"/><use xlink:href="#9" y="17.368"/><use xlink:href="#10" y="19.539"/></svg><svg x="1120"><use xlink:href="#a"/><use xlink:href="#1" y="2.171"/><use xlink:href="#3" y="4.342"/><use xlink:href="#4" y="6.513"/><use xlink:href="#5" y="8.684"/><use xlink:href="#6" y="10.855"/><use xlink:href="#7" y="13.026"/><use xlink:href="#8" y="15.197"/><use xlink:href="#9" y="17.368"/><use xlink:href="#10" y="19.539"/><use xlink:href="#1" y="23.881"/><use xlink:href="#2" y="26.052"/></svg><svg x="1200"><use xlink:href="#a"/><use xlink:href="#1" y="2.171"/><use xlink:href="#3" y="4.342"/><use xlink:href="#4" y="6.513"/><use xlink:href="#5" y="8.684"/><use xlink:href="#6" y="10.855"/><use xlink:href="#7" y="13.026"/><use xlink:href="#8" y="15.197"/><use xlink:href="#9" y="17.368"/><use xlink:href="#10" y="19.539"/><use xlink:href="#1" y="23.881"/><use xlink:href="#2" y="26.052"/></svg><svg x="1280"><use xlink:href="#a"/><use xlink:href="#1" y="2.171"/><use xlink:href="#3" y="4.342"/><use xlink:href="#4" y="6.513"/><use xlink:href="#5" y="8.684"/><use xlink:href="#6" y="10.855"/><use xlink:href="#7" y="13.026"/><use xlink:href="#8" y="15.197"/><use xlink:href="#9" y="17.368"/><use xlink:href="#10" y="19.539"/><use xlink:href="#1" y="23.881"/><use xlink:href="#2" y="26.052"/><text y="29.893" class="l">exit</text></svg></svg></g></g></svg></svg>