<svg xmlns="http://www.w3.org/2000/svg" xmlns:xlink="http://www.w3.org/1999/xlink" width="840" height="385.65"><rect width="840" height="385.65" rx="5" ry="5" class="a"/><svg y="0%" x="0%"><circle cx="20" cy="20" r="6" fill="#ff5f58"/><circle cx="40" cy="20" r="6" fill="#ffbd2e"/><circle cx="60" cy="20" r="6" fill="#18c132"/></svg><svg height="325.65" viewBox="0 0 80 32.565" width="800" x="15" xmlns="http://www.w3.org/2000/svg" xmlns:xlink="http://www.w3.org/1999/xlink" y="50"><style>@keyframes o{0%{transform:translateX(0)}12.4%{transform:translateX(-80px)}18.1%{transform:translateX(-160px)}24.4%{transform:translateX(-240px)}27.2%{transform:translateX(-320px)}30.9%{transform:translateX(-400px)}32.5%{transform:translateX(-480px)}35%{transform:translateX(-560px)}37%{transform:translateX(-640px)}38.6%{transform:translateX(-720px)}45.2%{transform:translateX(-800px)}46.7%{transform:translateX(-880px)}50.9%{transform:translateX(-960px)}53.9%{transform:translateX(-1040px)}62%{transform:translateX(-1200px)}62.7%{transform:translateX(-1280px)}64%{transform:translateX(-1360px)}to{transform:translateX(-1520px)}}.a{fill:#282d35}.k,.l,.m{white-space:pre}.k{fill:#b9bfca;font-weight:700}.l,.m{fill:#b9c0cb}.m{fill:#a8cc8c;font-weight:700}</style><g font-family="Monaco,Consolas,Menlo,'Bitstream Vera Sans Mono','Powerline Symbols',monospace" font-size="1.67"><defs><symbol id="1"><text y="1.67" style="white-space:pre" fill="#71bef2" font-weight="700">07-shell-snippets/snippets/killport</text><text x="36.072" y="1.67" style="white-space:pre" fill="#a8cc8c">feat/envsubst-killport</text><text x="59.118" y="1.67" style="white-space:pre" fill="#e88388">!</text><text x="61.122" y="1.67" style="white-space:pre" fill="#d290e4">conda/</text><text x="67.134" y="1.67" style="white-space:pre" fill="#d290e4" font-weight="700">base</text></symbol><symbol id="2"><text y="1.67" class="k">$</text></symbol><symbol id="3"><text y="1.67" class="k">$</text><text x="2.004" y="1.67" class="l">killport</text></symbol><symbol id="4"><text y="1.67" class="k">$</text><text x="2.004" y="1.67" class="l">killport</text><text x="11.022" y="1.67" class="l">8000</text></symbol><symbol id="5"><text y="1.67" class="l">killed</text><text x="7.014" y="1.67" class="l">process</text><text x="15.03" y="1.67" class="l">using</text><text x="21.042" y="1.67" class="l">port</text><text x="26.052" y="1.67" class="k">8000</text><text x="30.06" y="1.67" class="l">:</text><text x="32.064" y="1.67" class="m">next-server</text><text x="44.088" y="1.67" class="m">(v15.2.4)</text></symbol><symbol id="a"><path fill="transparent" d="M0 0h80v15H0z"/></symbol></defs><path class="a" d="M0 0h80v32.565H0z"/><g style="animation-duration:5.015385s;animation-iteration-count:infinite;animation-name:o;animation-timing-function:steps(1,end)"><svg width="1600"><svg><use xlink:href="#a"/><use xlink:href="#1" y="2.171"/><use xlink:href="#2" y="4.342"/></svg><svg x="80"><use xlink:href="#a"/><use xlink:href="#1" y="2.171"/><text y="6.012" class="k">$</text><text x="2.004" y="6.012" class="l">k</text></svg><svg x="160"><use xlink:href="#a"/><use xlink:href="#1" y="2.171"/><text y="6.012" class="k">$</text><text x="2.004" y="6.012" class="l">ki</text></svg><svg x="240"><use xlink:href="#a"/><use xlink:href="#1" y="2.171"/><text y="6.012" class="k">$</text><text x="2.004" y="6.012" class="l">kil</text></svg><svg x="320"><use xlink:href="#a"/><use xlink:href="#1" y="2.171"/><text y="6.012" class="k">$</text><text x="2.004" y="6.012" class="l">kill</text></svg><svg x="400"><use xlink:href="#a"/><use xlink:href="#1" y="2.171"/><text y="6.012" class="k">$</text><text x="2.004" y="6.012" class="l">killp</text></svg><svg x="480"><use xlink:href="#a"/><use xlink:href="#1" y="2.171"/><text y="6.012" class="k">$</text><text x="2.004" y="6.012" class="l">killpo</text></svg><svg x="560"><use xlink:href="#a"/><use xlink:href="#1" y="2.171"/><text y="6.012" class="k">$</text><text x="2.004" y="6.012" class="l">killpor</text></svg><svg x="640"><use xlink:href="#a"/><use xlink:href="#1" y="2.171"/><use xlink:href="#3" y="4.342"/></svg><svg x="720"><use xlink:href="#a"/><use xlink:href="#1" y="2.171"/><use xlink:href="#3" y="4.342"/></svg><svg x="800"><use xlink:href="#a"/><use xlink:href="#1" y="2.171"/><text y="6.012" class="k">$</text><text x="2.004" y="6.012" class="l">killport</text><text x="11.022" y="6.012" class="l">8</text></svg><svg x="880"><use xlink:href="#a"/><use xlink:href="#1" y="2.171"/><text y="6.012" class="k">$</text><text x="2.004" y="6.012" class="l">killport</text><text x="11.022" y="6.012" class="l">80</text></svg><svg x="960"><use xlink:href="#a"/><use xlink:href="#1" y="2.171"/><text y="6.012" class="k">$</text><text x="2.004" y="6.012" class="l">killport</text><text x="11.022" y="6.012" class="l">800</text></svg><svg x="1040"><use xlink:href="#a"/><use xlink:href="#1" y="2.171"/><use xlink:href="#4" y="4.342"/></svg><svg x="1120"><use xlink:href="#a"/><use xlink:href="#1" y="2.171"/><use xlink:href="#4" y="4.342"/></svg><svg x="1200"><use xlink:href="#a"/><use xlink:href="#1" y="2.171"/><use xlink:href="#4" y="4.342"/></svg><svg x="1280"><use xlink:href="#a"/><use xlink:href="#1" y="2.171"/><use xlink:href="#4" y="4.342"/><use xlink:href="#5" y="6.513"/></svg><svg x="1360"><use xlink:href="#a"/><use xlink:href="#1" y="2.171"/><use xlink:href="#4" y="4.342"/><use xlink:href="#5" y="6.513"/><use xlink:href="#1" y="10.855"/><use xlink:href="#2" y="13.026"/></svg><svg x="1440"><use xlink:href="#a"/><use xlink:href="#1" y="2.171"/><use xlink:href="#4" y="4.342"/><use xlink:href="#5" y="6.513"/><use xlink:href="#1" y="10.855"/><use xlink:href="#2" y="13.026"/></svg><svg x="1520"><use xlink:href="#a"/><use xlink:href="#1" y="2.171"/><use xlink:href="#4" y="4.342"/><use xlink:href="#5" y="6.513"/><use xlink:href="#1" y="10.855"/><use xlink:href="#2" y="13.026"/><text y="16.867" class="l">exit</text></svg></svg></g></g></svg></svg>